<svg
  xmlns="http://www.w3.org/2000/svg"
  viewBox="0 0 73.421 72.191"
  preserveAspectRatio="xMidYMid meet"
>
  <g transform="translate(-262.46 -25.104)">
    <path
      transform="scale(.26458)"
      d="m1047.8 637.71c-2.4087 0-2.852 4.7193-2.8633 30.6l-0.012 23.1 2.8965 3.9004c1.5925 2.145 9.8913 10.842 18.441 19.328l15.545 15.43 1.1406 7.0703c0.6272 3.8889 1.3243 8.032 1.5488 9.2051 0.2246 1.173 7.6855 9.1808 16.58 17.797 11.905 11.533 16.722 15.587 18.26 15.367 2.0629-0.29469 2.0919-0.70307 2.3867-33.297 0.2577-28.501 0.084-33.409-1.2773-36-2.1894-4.1665-70.661-72.5-72.646-72.5zm167.3 0.22266c-1.2894-0.42985-66.827 65.412-71.133 71.463-2.4267 3.4104-2.4681 3.8174-2.871 28.355-0.2247 13.692-0.09 28.733 0.3007 33.426 0.8157 9.7919 1.4477 10.254 7.2461 5.2949 11.858-10.142 28.346-26.369 29.707-29.238 0.8682-1.8297 1.5781-5.6645 1.5781-8.5215 0-6.862 0.9033-8.0847 20.822-28.191l16.531-16.688 0.4336-24.312c0.4255-23.854-0.1462-30.765-2.6152-31.588zm60.252 38.744-66.102 65.545c-36.356 36.049-66.58 66.769-67.162 68.266-0.5823 1.4967-1.2104 11.721-1.3945 22.721-0.276 16.485-0.6341 20.559-2.0391 23.18-3.0978 5.7779-9.2277 5.6834-12.025-0.18359-1.4156-2.968-1.7012-6.7462-1.7012-22.562 0-13.663-0.3773-19.903-1.3457-22.221-0.8084-1.9349-27.682-29.488-67.25-68.951l-65.904-65.729-27.691-0.0156c-19.799-0.0119-27.892 0.31091-28.4 1.1328-0.43601 0.70541 18.472 20.245 48.941 50.576 48.419 48.2 49.65 49.522 49.65 53.285 0 2.1225 0.4153 4.9489 0.9219 6.2812 0.5065 1.3323 7.2284 8.7096 14.938 16.393 8.4757 8.4472 14.286 15.05 14.701 16.703 0.3776 1.5037 0.4436 4.5462 0.1465 6.7617-0.4737 3.5321-2.0896 5.6066-13.123 16.844l-12.584 12.816v58.189h2.209c1.5565 0 10.497-8.2464 30.25-27.898 15.422-15.344 29.05-28.196 30.281-28.562 1.8838-0.56084 4.2273 1.2647 14.779 11.518l12.541 12.186 5.543-0.45898 5.543-0.46094 11.691-11.66c6.4307-6.4139 12.44-11.662 13.354-11.662s14.555 12.713 30.314 28.25c19.799 19.52 29.325 28.25 30.824 28.25h2.1699l0.2656-28.725 0.2656-28.723-9.6504-9.7773c-14.398-14.586-16.381-17.418-16.381-23.387v-4.957l15-15.367c12.868-13.183 15-15.812 15-18.498 0-7.2222 2.11-9.6176 50.66-57.566 36.536-36.083 47.499-47.465 47.201-49-0.3745-1.9331-1.2908-2.009-27.412-2.2656zm-310.67 67.033c-3.8148 0-4.252 2.5622-4.252 24.902 0 18.352 0.25257 22.059 1.6816 24.666 0.92501 1.6877 14.195 15.525 29.488 30.75 15.293 15.225 28.27 27.682 28.836 27.682 0.5659 0 5.8923-4.8796 11.836-10.842 9.637-9.667 10.869-11.303 11.381-15.117l0.5723-4.2774-39.018-38.883c-21.46-21.385-39.696-38.881-40.525-38.881zm334.84 0.0137c-1.312-0.022-75.83 75.673-77.391 78.613-0.7167 1.3509-1.0102 3.4497-0.6503 4.6641 0.3597 1.2143 5.6636 7.2715 11.787 13.459 6.1234 6.1875 11.634 11.25 12.244 11.25 1.8599 0 57.294-56.64 57.936-59.195 0.331-1.3124 0.4611-12.397 0.2929-24.633-0.3112-22.649-0.5642-24.097-4.2187-24.158zm-135.52 133.99c-0.8108 0-6.9354 5.4-13.611 12-12.066 11.929-12.167 12-16.865 12-2.5996 0-5.7089-0.52184-6.9102-1.1582-1.2014-0.63636-6.7142-5.8114-12.25-11.5-13.446-13.817-12.754-13.846-27.289 1.1836-6.1303 6.3392-11.146 12.079-11.146 12.754 0 0.67532 12.262 13.719 27.25 28.986 17.735 18.066 27.947 27.754 29.244 27.746 2.2388-0.0136 57.506-54.618 57.506-56.816 0-1.7942-24.082-25.195-25.928-25.195z"
    />
    <path
      transform="scale(.26458)"
      d="m207.76 649.71-42.098 42.5c-23.153 23.375-42.792 42.5-43.641 42.5s-8.3642-6.8108-16.701-15.135c-14.142-14.12-15.349-15.088-18.012-14.422-1.7939 0.44863-8.2532 6.0694-17.395 15.135-7.9979 7.9314-14.955 14.422-15.461 14.422-0.50587 0-19.856-18.9-42.998-42l-42.076-42-27.963 0.0996c-28.206 0.10057-32.476 0.4449-33.223 2.6836-0.22529 0.67586 13.625 15.064 30.779 31.973 17.154 16.909 32.268 32.584 33.586 34.832 1.8286 3.119 2.3965 5.551 2.3965 10.262v6.1738l22.193 22.537c12.206 12.396 23.205 24.203 24.441 26.238 1.9593 3.2238 3.1188 8.0929 4.957 20.822 0.32691 2.2638 2.2996 4.8447 7.1797 9.3965 3.7009 3.4519 11.256 10.598 16.787 15.879 5.5316 5.2814 12.732 11.918 16 14.746 3.2684 2.8283 9.3164 8.1123 13.441 11.742 4.125 3.6299 8.175 6.5935 9 6.5859 2.2467-0.0216 5.4714-2.8936 40.957-36.471 5.8126-5.5 12.243-11.465 14.289-13.258s3.9232-4.2674 4.1699-5.5c0.24678-1.2326 0.97127-5.1672 1.6113-8.7422 1.8231-10.183 4.8535-16.113 12.494-24.459 3.8387-4.1932 10.354-11.307 14.479-15.809 4.125-4.5016 9.3938-10.023 11.709-12.27 8.078-7.8385 10.291-11.33 10.291-16.234 0-10.846-1.5496-8.9541 44.77-54.611 13.327-13.136 24.23-24.448 24.23-25.135 0-2.1647-3.7953-2.4536-32.348-2.4688zm34.506 73.48c-0.41475 0.0307-0.88379 0.16589-1.4121 0.36133-3.183 1.1775-69.016 67.337-70.525 70.875-1.0627 2.491-1.373 10.062-1.373 33.516v30.295l-5.0059 6.1875c-2.7535 3.403-5.4535 7.3635-6 8.8008-1.1069 2.9114-1.3358 15.526-0.36914 20.359 0.34375 1.7188 1.1434 3.125 1.7774 3.125 0.63396 0 11.828-10.71 24.875-23.799l23.723-23.797 0.0312-15.953c0.0248-12.433 0.35684-16.392 1.5039-17.951 0.80948-1.1 9.2332-9.7678 18.719-19.26l17.246-17.258v-26.336c0-24.517-0.2862-29.381-3.1894-29.166zm-305.3 2.7305c-3.432 0.39881-3.8829 3.7393-3.9531 29.223-0.06811 24.742 0.2019 25.655 10.82 36.479 3.6417 3.712 10.446 10.682 15.121 15.49l8.5 8.7402 0.5 16.91 0.5 16.908 23.527 23.52c12.939 12.935 24.028 23.52 24.643 23.52 1.8602 0 2.3315-2.6994 2.3262-13.332l-0.0059-10.168-5.4961-6.8848-5.4941-6.8828v-65.111l-34.25-34.35c-28.716-28.801-34.652-34.303-36.738-34.061zm100.33 120.96c-1.886 0.0783-2.3431 3.0538-1.8457 10.328 0.30086 4.4 0.7677 15.875 1.0371 25.5 0.26941 9.625 0.74226 18.625 1.0508 20 0.68313 3.0444 37.007 40.004 43.359 44.119 5.698 3.6909 9.6535 3.6926 14.654 4e-3 2.145-1.5822 12.788-11.867 23.65-22.854l19.75-19.977 0.1836-21.896c0.17865-21.437-0.0742-33.556-0.71289-34.238-1.2522-1.3368-6.4854 3.1053-21.156 17.957-19.7 19.943-23.471 22.885-29.34 22.885-5.5831 0-7.1757-1.2457-28.766-22.496-10.06-9.9022-19.207-18.426-20.326-18.941-0.59345-0.27326-1.1038-0.4087-1.5391-0.39062z"
    />
    <path
      transform="scale(.26458)"
      d="m438.38 653.71c-19.744 0-28.507 0.3368-28.988 1.1152-0.40781 0.65987 19.363 21.189 48.395 50.25 26.996 27.024 49.556 50.401 50.131 51.949 0.5754 1.5483 1.0449 4.4317 1.0449 6.4082 0 3.2762 1.2628 4.8834 14.285 18.186 7.8564 8.0252 15.085 16.295 16.064 18.379 3.1247 6.6473 0.95699 10.056-19.541 30.736-3.5571 3.5887-7.2992 7.7951-8.3164 9.3476l-1.8496 2.8242 14.496 14.402c8.2719 8.2179 15.3 14.402 16.365 14.402 1.079 0 9.0863-7.1759 18.969-17 9.4055-9.35 17.534-16.998 18.064-16.99 0.5302 6e-3 6.3386 5.2267 12.908 11.604 14.784 14.35 15.385 14.76 20.451 13.904 3.349-0.5658 5.8312-2.5136 16.057-12.594 7.7662-7.6558 12.854-11.924 14.211-11.924 1.3969 0 7.9159 5.7581 19.225 16.982 9.4113 9.3412 17.657 16.992 18.324 17 1.7098 0.0226 24.022-22.963 27.521-28.352 2.2302-3.4345 0.55765-6.018-11.984-18.512-7.0125-6.9855-13.621-14.337-14.686-16.334-3.3573-6.2987-1.315-10.087 13.639-25.311 7.0362-7.1632 13.491-14.022 14.346-15.242 0.85448-1.2199 1.9745-4.8003 2.4883-7.957l0.9336-5.7383 49.16-49.168c35.655-35.66 48.992-49.609 48.547-50.77-0.54282-1.4143-3.8533-1.5996-28.467-1.5996h-27.852l-63.961 64.25c-35.178 35.337-65.609 66.29-67.623 68.783l-3.6621 4.5332-0.30665 21.646c-0.2858 20.16-0.44948 21.84-2.4043 24.467-2.8338 3.8079-6.3213 4.0978-9.4356 0.78711-2.4343-2.588-2.4734-2.9161-2.9668-24.822-0.47992-21.307-0.5926-22.319-2.8164-25.172-1.2744-1.6351-31.6-32.56-67.391-68.723l-65.074-65.75zm172.69 23c-0.87367 0-11.154 9.5576-22.846 21.24-15.566 15.553-21.26 21.867-21.26 23.58 0 1.706 5.6168 7.994 20.75 23.229 12.923 13.01 21.502 20.901 22.742 20.92 2.5328 0.0389 44.508-41.691 44.508-44.248 0-2.2328-41.703-44.721-43.895-44.721zm144.65 69.127c-0.71077 0.0634-1.5773 0.38311-2.6328 0.82032-3.0896 1.2797-49.136 47.862-52.387 52.996-3.4567 5.4593-2.026 8.3713 10.01 20.363 5.9021 5.8808 11.433 10.693 12.291 10.693 1.7872 0 29.714-27.886 33.471-33.422 2.4741-3.6434 2.4883-3.8202 2.4883-26.5 0-20.684-0.16023-25.226-3.2402-24.951zm-292.41 0.0215c-1.0392 0.0145-1.6879 0.78763-2.5352 1.834-1.6246 2.0066-1.8125 4.4766-1.8125 23.904 0 18.394 0.24849 22.042 1.6387 24.141 0.90062 1.3599 8.8826 9.7852 17.738 18.723 8.8556 8.9375 16.831 16.25 17.723 16.25 1.8725 0 20.634-18.644 22.668-22.525 2.7013-5.1557 1.0511-7.5817-19.6-28.797-26.069-26.782-32.703-33.573-35.82-33.529zm114.09 110.85c-1.5359 0-25.439 24.534-25.42 26.094 0.0252 2.3082 0.6085 2.943 28.859 31.461 14.953 15.094 27.746 27.445 28.43 27.445 0.68372 0 13.719-12.506 28.969-27.791 22.083-22.135 27.727-28.321 27.727-30.395 0-1.9954-2.7334-5.3124-11.713-14.209-6.4426-6.3832-12.412-11.605-13.266-11.605s-6.9119 5.3733-13.463 11.941c-17.353 17.399-18.498 17.367-37.078-1.002-6.6431-6.5675-12.513-11.939-13.045-11.939z"
    />
    <path
      transform="scale(.26458)"
      d="m-417.46 675.71c-28.554-0.0663-65.256 0.31003-67.02 0.98047-1.4108 0.53639-2.5664 1.4175-2.5664 1.959 0 0.54146 7.3467 8.5408 16.326 17.775 8.9794 9.2347 20.567 21.376 25.75 26.98 5.1831 5.6045 9.953 10.216 10.6 10.25 0.64656 0.033 6.7216-5.6681 13.5-12.668 6.7784-6.9999 18.512-19.085 26.074-26.857 7.5625-7.7721 13.75-14.814 13.75-15.648 0-0.89885-1.2732-1.7702-3.125-2.1406-1.9587-0.39169-16.157-0.59105-33.289-0.63086zm-99.02 4.2695c-0.25989-0.0109-0.50501 0.0223-0.75 0.0879-1.2738 0.34103-13.918 0.62721-28.098 0.63477-22.815 0.0121-25.853 0.19989-26.402 1.6309-0.3411 0.88936-0.21477 2.6652 0.28125 3.9473 0.89144 2.304 33.25 35.979 84.018 87.436l26.145 26.5 0.74219 49.5c0.40853 27.225 1.091 50.4 1.5156 51.5 1.1699 3.0311 14.803 17.687 18.887 20.303 2.8664 1.8362 4.508 2.1946 8.0957 1.7715 4.1119-0.48495 5.2146-1.2869 12.777-9.3027 4.552-4.8248 8.8869-9.8965 9.6348-11.271 1.0516-1.9334 1.505-11.793 1.9961-43.5 0.34926-22.55 0.90442-45.021 1.2344-49.936l0.59961-8.9355 14.129-14.564c7.771-8.0103 19.119-19.739 25.219-26.064 12.193-12.644 42.831-44.255 59.658-61.553 10.536-10.83 12.178-13.623 9.5527-16.248-0.87617-0.8761-8.7529-1.1992-29.186-1.1992h-27.984l-10.066 10.426c-9.8056 10.158-13.408 14.071-27.238 29.574-3.6799 4.125-10.546 11.586-15.258 16.582-4.7123 4.9955-12.314 13.208-16.891 18.25-4.577 5.042-9.0911 9.168-10.031 9.168-1.6622 0-8.7903-6.8634-16.617-16-2.1202-2.475-7.4934-8.3568-11.941-13.07-8.8006-9.326-13.382-14.363-24.088-26.49-3.85-4.3607-11.807-12.829-17.684-18.818-7.911-8.0633-10.431-10.281-12.25-10.357zm-42.855 74.736c-27.431 0-31.853 0.20665-32.354 1.5117-0.54667 1.4245 2.0679 4.8727 12.125 15.988 1.9905 2.2 5.9588 6.6723 8.8184 9.9394 2.8596 3.2672 8.1787 9.1172 11.82 13 3.6416 3.8828 10.796 11.786 15.898 17.561 14.881 16.842 33.126 37.092 37.824 41.98 2.389 2.4857 6.889 7.4209 10 10.969 3.111 3.5478 7.4187 8.4055 9.5723 10.793 7.2079 7.9907 7.1346 8.3394 6.7012-31.76-0.36476-33.749-0.48687-35.687-2.5-39.641-1.1641-2.2861-7.2922-9.579-13.617-16.207-6.325-6.628-16.227-17.02-22.006-23.094l-10.508-11.041zm219.44 0-3.084 2.5938c-1.696 1.4271-6.9866 6.9396-11.756 12.25-4.7694 5.3104-13.152 14.381-18.629 20.156-5.4768 5.775-11.088 12.197-12.469 14.271l-2.5098 3.7715-0.75 35.729c-0.53605 25.546-0.43583 36.112 0.35156 37.076 0.88104 1.0791 2.1095 0.26824 6.1465-4.0586 15.592-16.712 27.552-29.835 38.539-42.289 6.7929-7.7 15.536-17.375 19.43-21.5 3.8941-4.125 12.704-13.767 19.578-21.424 6.8738-7.6573 15.768-17.471 19.764-21.809 9.5003-10.312 11.044-12.643 9.1562-13.838-0.78153-0.49467-15.45-0.90846-32.596-0.91602z"
    />
    <path
      transform="scale(.26458)"
      d="m1262.9 94.881c-4.0073 0.06049-10.15 4.0743-19.816 12.578-3.1182 2.7433-11.97 10.222-19.67 16.619-32.967 27.389-34.777 29.235-37.064 37.83-1.1568 4.346-1.4125 19.151-1.4238 81.973-0.01 42.168 0.262 77.38 0.5957 78.25 0.3337 0.86999 1.2385 1.582 2.0097 1.582s11.98-10.462 24.908-23.25l23.506-23.25-0.012-44c-0.01-28.451 0.3724-45.375 1.0703-47.889 1.1329-4.0802 6.9028-10.384 20.584-22.488 11.35-10.042 11.824-11.612 11.824-39.123 0-19.666-0.2234-22.909-1.7754-25.75-1.126-2.0608-2.6392-3.1137-4.7383-3.082zm-263.68 0.07617c-2.2846-0.01875-4.1291 1.1861-5.5664 3.6191-1.5109 2.558-1.7402 5.8347-1.7402 24.916 0 20.972 0.10786 22.216 2.3809 27.346 2.3262 5.25 7.3737 10.641 17.67 18.875 6.1313 4.9034 8.8232 7.8808 11.303 12.5 2.093 3.8991 2.1542 5.1477 2.4316 49.5l0.2852 45.5 22.715 22.777c24.583 24.65 26.27 25.78 27.215 18.223 0.2751-2.2 0.5-37.75 0.5-79v-75l-2.7461-5.5938c-2.9235-5.9529-11.899-15.424-22.381-23.617-3.3698-2.6341-14.62-11.993-25-20.797-10.38-8.8034-20.493-16.855-22.473-17.895-1.6944-0.88974-3.223-1.3423-4.5938-1.3535zm131.86 74.756c-5.2087 0-14.382 4.9574-27.67 14.955-2.2 1.6553-4.9891 3.5288-6.1992 4.1641-1.2102 0.63525-2.6726 2.5117-3.25 4.168-0.6923 1.9858-1.0508 25.623-1.0508 69.41 0 55.46 0.2346 66.846 1.4219 69.102 0.7818 1.4852 9.0241 10.239 18.316 19.451s17.54 16.756 18.328 16.764c1.3146 0.0135 28.784-27.217 35.184-34.877l2.75-3.291v-66.773c0-44.048-0.3563-67.799-1.0488-69.785-0.5774-1.6563-2.04-3.5327-3.25-4.168-1.2101-0.63525-4.0012-2.5125-6.2012-4.1719-10.701-8.0714-23.274-14.947-27.33-14.947z"
    />
    <path
      transform="scale(.26458)"
      d="m485.65 101.71c-1.0146 0-3.1599 1.3142-4.7676 2.9219l-2.9238 2.9238v25.127c0 26.829 0.0399 27.073 5.4062 34.379 1.9905 2.7098 21.852 20.201 37.641 33.148 12.937 10.609 16.624 14.405 19.82 20.402l3.1328 5.877v45.545c0 29.3 0.37456 46.548 1.0488 48.359 0.57653 1.5483 9.6844 11.479 20.24 22.066h4e-3c10.556 10.588 19.712 19.25 20.346 19.25 0.6339 0 1.426-0.71204 1.7598-1.582 0.33373-0.86998 0.60547-19.463 0.60547-41.318 0-43.572 0.21125-45.479 5.9805-54.1l3.0117-4.5v-30.123c4e-3 -27.69-0.15368-30.476-1.9434-34.5-1.8428-4.1427-8.2887-11.105-16.053-17.338-1.925-1.5453-5.975-4.9672-9-7.6055-13.706-11.953-30.483-26.321-41.5-35.539-14.287-11.955-14.765-12.36-25-21.168-9.7031-8.35-15.35-12.227-17.809-12.227zm245.08 0.66016c-3.1099-0.21255-9.1622 2.808-14.299 7.3105-2.2138 1.9405-6.2638 5.3884-9 7.6621-25.864 21.492-38.909 32.525-43.975 37.195-3.3 3.042-8.2872 7.3632-11.084 9.6016-21.536 17.236-30.821 26.375-32.854 32.34-1.2751 3.7415-1.5625 9.9012-1.5625 33.447 0 30.821-0.24816 28.908 4.8887 37.783 4.0648 7.0237 4.1113 7.5876 4.1113 50.867 0 22.99 0.30136 42.098 0.66797 42.465 0.36662 0.36669 1.1541 0.66988 1.75 0.67188 0.59581 2e-3 9.9022-8.8853 20.682-19.75l19.6-19.754 0.65039-6.3965c0.35811-3.5182 0.65039-24.994 0.65039-47.723 0-41.235 6e-3 -41.336 2.3555-46.604 2.4204-5.4271 6.0329-9.1626 21.225-21.941 18.95-15.94 22.177-18.754 30.047-26.205 12.482-11.819 12.373-11.461 12.373-40.725 0-26.037-0.22188-27.351-5.084-29.953-0.31294-0.16748-0.69831-0.26261-1.1426-0.29297z"
    />
    <path
      d="m21.421 89.682c-0.3638-0.24048-1.2061-0.91884-1.8718-1.5075-0.66568-0.58864-1.6182-1.4149-2.1167-1.8361-0.49848-0.4212-1.9037-1.6118-3.1227-2.6458-1.219-1.034-2.6647-2.2372-3.2125-2.6738-1.1547-0.92008-4.0983-3.5813-7.3432-6.6386-2.2406-2.1111-2.2747-2.1622-2.4667-3.7042-0.10708-0.85994-0.20474-3.5398-0.21702-5.9552l-0.02233-4.3917-2.1828-1.7524c-5.1297-4.1182-6.7512-5.7683-7.7167-7.8527-0.51261-1.1067-0.55668-1.7317-0.62493-8.8635-0.07001-7.3161-0.04848-7.7132 0.46314-8.5394 0.60539-0.97762 1.5943-1.459 2.52-1.2267 0.34322 0.08614 1.598 0.9793 2.7885 1.9848 1.1905 1.0055 2.2408 1.8297 2.3342 1.8315 0.09334 0.0019 0.65871 0.45757 1.2564 1.0128 1.1671 1.0842 7.0514 6.1038 8.4088 7.1731 1.2512 0.98562 5.8147 4.8327 6.1149 5.155 0.14552 0.15619 0.91943 0.81732 1.7198 1.4692 0.80036 0.65185 2.2507 1.8887 3.223 2.7486l1.7678 1.5634 0.16854 15.05 0.86407 0.77169c1.0498 0.93758 1.4037 0.95758 2.3623 0.1335l0.74236-0.63819 0.1621-15.393 1.6743-1.6534c2.2774-2.249 3.2893-3.1502 4.3813-3.9021 0.50932-0.35069 1.5809-1.2064 2.3812-1.9017 0.80036-0.69522 2.4789-2.0699 3.7302-3.0548 1.2512-0.9849 4.0492-3.3047 6.2177-5.155 7.1712-6.1191 7.6455-6.5024 8.6232-6.9686 1.161-0.55363 2.1416-0.26308 2.9925 0.88666 0.50127 0.67729 0.52897 1.1265 0.52542 8.5202-5e-3 10.355 0.45062 9.3704-7.4391 16.075-4.6494 3.9508-4.1772 2.958-4.3311 9.1055l-0.13229 5.2816-1.5875 1.5057c-0.87312 0.82812-2.3019 2.0828-3.175 2.7881-0.87312 0.70531-3.1176 2.6096-4.9877 4.2317-1.8701 1.6221-4.3704 3.7892-5.5562 4.8157-3.4638 2.9983-5.6304 4.6169-6.1602 4.6021-0.27156-0.0076-0.79141-0.21063-1.1552-0.45111z"
      stroke-width=".26458"
    />
    <path
      d="m-117.23 78.494c-2.9647-2.5956-7.89-6.8399-8.7311-7.5237-0.50932-0.41408-1.4023-1.1872-1.9844-1.7182-1.2456-1.1361-4.4546-3.8596-8.3344-7.0735-5.4368-4.5037-6.4008-5.4497-7.1162-6.9838-0.67369-1.4446-0.67874-1.5064-0.68383-8.3805-5e-3 -6.6243 0.019-6.9577 0.5502-7.6729 0.6084-0.81918 1.7594-1.1098 2.3742-0.59955 0.21122 0.17529 0.72828 0.51132 1.149 0.74672 0.875 0.48956 4.0849 3.1228 6.6497 5.4551 0.96016 0.87312 2.5517 2.2423 3.5367 3.0427 0.98501 0.80036 3.3004 2.7649 5.1454 4.3656s3.9474 3.3852 4.6721 3.9654c0.72465 0.58024 1.9664 1.622 2.7594 2.3151s1.6009 1.2601 1.7952 1.2601c0.51742 0 1.6435-0.74576 2.8483-1.8863 0.58208-0.55105 2.0802-1.8701 3.3292-2.9312 1.249-1.0611 4.166-3.548 6.4823-5.5264 12.972-11.08 13.598-11.534 14.911-10.831 1.2248 0.65548 1.3386 1.3893 1.3386 8.6282v6.794l-0.77814 1.3551c-0.84306 1.4682-2.0789 2.7423-4.8106 4.9598-2.5649 2.082-7.3344 6.123-10.267 8.6984-1.4083 1.2369-3.2622 2.8443-4.1198 3.5719-0.85759 0.7276-2.042 1.7492-2.6321 2.2702-6.0686 5.3582-6.1479 5.3945-8.0844 3.6989z"
      stroke-width=".26458"
    />
  </g>
</svg>
