<?xml version="1.0" encoding="UTF-8" standalone="no" ?>
<svg xmlns="http://www.w3.org/2000/svg">
  <symbol id="logo" viewBox="0 0 200 200" preserveAspectRatio="xMidYMid meet">
    <g id="layer2" style="display:inline">
      <path
        style="fill:#d2691e;fill-opacity:1;stroke:#000000;stroke-width:4;stroke-miterlimit:4;stroke-opacity:1;stroke-dasharray:none"
        d="M 100,2 C 99.154314,2 98.309304,2.00995 97.46875,2.03125 96.64918,2.052014 95.8457,2.084231 95.03125,2.125 94.436704,2.155362 93.843845,2.17763 93.25,2.21875 c -0.260069,0.01772 -0.521743,0.042754 -0.78125,0.0625 -0.333779,0.02578 -0.666504,0.064573 -1,0.09375 C 90.686421,2.442493 89.901964,2.5079831 89.125,2.59375 89.06241,2.60073 89.000077,2.617897 88.9375,2.625 86.840636,2.8630154 84.73495,3.1588425 82.65625,3.53125 82.57181,3.546333 82.490612,3.578451 82.40625,3.59375 82.007682,3.666218 81.616484,3.7351012 81.21875,3.8125 80.896641,3.875034 80.570974,3.9343193 80.25,4 c -0.137579,0.028222 -0.26878,0.064937 -0.40625,0.09375 -0.768117,0.1609943 -1.548,0.3205636 -2.3125,0.5 -0.674358,0.1582537 -1.362339,0.3278969 -2.03125,0.5 -0.844437,0.2173071 -1.692132,0.4475593 -2.53125,0.6875 -1.480731,0.423406 -2.944209,0.8813011 -4.40625,1.375 C 68.53101,7.166905 68.50022,7.176814 68.46875,7.1875 68.43793,7.197944 68.40582,7.208275 68.375,7.21875 67.272612,7.593467 66.152829,7.9916473 65.0625,8.40625 64.290038,8.7010773 63.512943,8.9988325 62.75,9.3125 c -0.302822,0.1244986 -0.604959,0.2475647 -0.90625,0.375 -0.01257,0.0053 -0.01868,0.025945 -0.03125,0.03125 -1.445572,0.609995 -2.893213,1.256057 -4.3125,1.9375 -0.01232,0.0059 -0.01893,0.02533 -0.03125,0.03125 -0.701286,0.338286 -1.401875,0.676872 -2.09375,1.03125 -0.0125,0.0064 -0.01875,0.02486 -0.03125,0.03125 -0.691558,0.354594 -1.380597,0.692068 -2.0625,1.0625 -0.107287,0.0581 -0.205396,0.128974 -0.3125,0.1875 -0.613253,0.335106 -1.20537,0.682278 -1.8125,1.03125 -0.65891,0.37965 -1.319617,0.761827 -1.96875,1.15625 -0.03944,0.02391 -0.08559,0.03853 -0.125,0.0625 -3.324733,2.026641 -6.513572,4.260219 -9.5625,6.65625 -0.11196,0.08805 -0.232105,0.1614 -0.34375,0.25 -0.504142,0.39971 -1.00398,0.809398 -1.5,1.21875 -0.605006,0.499296 -1.18856,1.017843 -1.78125,1.53125 -0.59269,0.513407 -1.201132,1.035237 -1.78125,1.5625 -0.553928,0.504661 -1.111813,1.011867 -1.65625,1.53125 -0.03211,0.03056 -0.06168,0.06315 -0.09375,0.09375 -0.195583,0.187083 -0.399421,0.373515 -0.59375,0.5625 -0.355545,0.344987 -0.680952,0.712202 -1.03125,1.0625 -0.427611,0.428611 -0.860072,0.843226 -1.28125,1.28125 -0.123148,0.127777 -0.252541,0.246557 -0.375,0.375 -0.26467,0.27823 -0.519205,0.561775 -0.78125,0.84375 -0.347041,0.372631 -0.689982,0.746989 -1.03125,1.125 -0.224686,0.249262 -0.464856,0.497915 -0.6875,0.75 -0.223608,0.252842 -0.435223,0.526091 -0.65625,0.78125 C 25.579471,36.252773 25.259681,36.61604 24.9375,37 L 57.5,64.3125 c 5.858863,-6.972786 13.402546,-12.454396 22,-15.875 l 0,103.125 c 6.344237,2.52422 13.256112,3.9375 20.5,3.9375 7.24389,0 14.15576,-1.41328 20.5,-3.9375 l 0,-103.125 c 8.59745,3.420604 16.14114,8.902214 22,15.875 L 175.0625,37 c -0.0335,-0.03986 -0.0602,-0.0852 -0.0937,-0.125 -0.84205,-1.000275 -1.71294,-1.972342 -2.59375,-2.9375 -0.045,-0.04929 -0.0799,-0.107053 -0.125,-0.15625 -0.0599,-0.06532 -0.12747,-0.122346 -0.1875,-0.1875 -0.90568,-0.982986 -1.83633,-1.930075 -2.78125,-2.875 -0.94492,-0.944925 -1.89201,-1.875574 -2.875,-2.78125 -1.07509,-0.990532 -2.16212,-1.964152 -3.28125,-2.90625 -0.0398,-0.03355 -0.0851,-0.06026 -0.125,-0.09375 -0.45085,-0.378309 -0.9194,-0.756192 -1.375,-1.125 -0.2007,-0.162534 -0.39175,-0.339024 -0.59375,-0.5 -0.17632,-0.140497 -0.35424,-0.267162 -0.53125,-0.40625 -0.47673,-0.374639 -0.95371,-0.759072 -1.4375,-1.125 -0.14306,-0.108187 -0.29402,-0.205213 -0.4375,-0.3125 -0.52682,-0.393983 -1.05881,-0.772696 -1.59375,-1.15625 -0.10363,-0.07432 -0.20867,-0.144887 -0.3125,-0.21875 -0.64041,-0.455421 -1.2858,-0.903467 -1.9375,-1.34375 -0.61351,-0.414479 -1.22046,-0.849158 -1.84375,-1.25 -0.039,-0.0251 -0.086,-0.03746 -0.125,-0.0625 -0.65529,-0.420114 -1.30292,-0.845186 -1.96875,-1.25 -0.008,-0.0047 -0.0237,0.0047 -0.0312,0 -0.51809,-0.314798 -1.03817,-0.632098 -1.5625,-0.9375 -0.15669,-0.09131 -0.3117,-0.190893 -0.46875,-0.28125 -0.0202,-0.01161 -0.0423,-0.01965 -0.0625,-0.03125 -1.41708,-0.813949 -2.83598,-1.576051 -4.28125,-2.3125 -0.72263,-0.368225 -1.45836,-0.713603 -2.1875,-1.0625 -0.63637,-0.304506 -1.26519,-0.616444 -1.90625,-0.90625 -0.0931,-0.04209 -0.18801,-0.0832 -0.28125,-0.125 -0.72278,-0.324 -1.45913,-0.6321157 -2.1875,-0.9375 -0.0125,-0.00523 -0.0188,-0.026024 -0.0312,-0.03125 -0.62581,-0.2620735 -1.27655,-0.501644 -1.90625,-0.75 -0.6473,-0.2552467 -1.31479,-0.5082227 -1.96875,-0.75 C 133.873,8.027049 133.78364,7.972637 133.68765,7.9375 133.57241,7.895304 133.45934,7.854275 133.3439,7.8125 131.95269,7.3091687 130.56318,6.8439387 129.1564,6.40625 129.04298,6.371018 128.92595,6.347331 128.8125,6.3125 128.15608,6.1108917 127.50315,5.9061248 126.84375,5.71875 126.73954,5.689154 126.6356,5.654259 126.53125,5.625 125.06383,5.2133232 123.60511,4.8414625 122.125,4.5 c -0.0618,-0.014275 -0.12562,-0.017093 -0.1875,-0.03125 -0.76157,-0.1741225 -1.54811,-0.3444073 -2.3125,-0.5 -0.01,-0.00203 -0.0213,0.00203 -0.0312,0 -1.5486,-0.3147208 -3.09826,-0.6048849 -4.65625,-0.84375 -0.76936,-0.1175555 -1.56861,-0.212947 -2.34375,-0.3125 -0.0423,-0.00544 -0.0827,-0.025862 -0.125,-0.03125 -0.74387,-0.094558 -1.46977,-0.1722169 -2.21875,-0.25 -0.68822,-0.071819 -1.37343,-0.1302755 -2.0625,-0.1875 C 108.09425,2.33602 107.99971,2.319964 107.9063,2.3125 106.11279,2.1687623 104.32737,2.0764249 102.5313,2.03125 101.97064,2.0170519 101.40646,2.004751 100.84375,2 100.56137,1.9976931 100.28235,1.9998786 100,2 z"
        id="rect3811"
      />
    </g>
    <g id="layer1" transform="translate(0,-852.36218)" style="display:inline">
      <path
        style="fill:#808080;fill-opacity:1;stroke:#000000;stroke-width:4;stroke-miterlimit:4;stroke-opacity:1;stroke-dasharray:none;display:inline"
        d="M 24.9375,37 C 10.62535,54.035087 2,76.009607 2,100 c 0,54.12394 43.876087,98 98,98 54.12391,0 98,-43.87606 98,-98 0,-23.990393 -8.62535,-45.964913 -22.9375,-63 L 142.5,64.3125 c 8.10648,9.647736 13,22.10004 13,35.6875 0,30.65182 -24.84818,55.5 -55.5,55.5 -30.651823,0 -55.5,-24.84818 -55.5,-55.5 0,-13.58746 4.893519,-26.039764 13,-35.6875 z"
        id="path2987-9"
        transform="translate(0,852.36218)"
      />
    </g>
  </symbol>
</svg>
